<?xml version="1.0" encoding="utf-8"?>
<!-- Generator: Adobe Illustrator 19.1.0, SVG Export Plug-In . SVG Version: 6.00 Build 0)  -->
<svg version="1.1" id="Layer_1" xmlns="http://www.w3.org/2000/svg" xmlns:xlink="http://www.w3.org/1999/xlink" x="0px" y="0px"
	 viewBox="0 0 900 900" style="enable-background:new 0 0 900 900;" xml:space="preserve">
<g>
	<g>
		<path d="M158.9,469.3c2.3,0.2,3.9,0.3,4.8,0.4c0.9,0,1.8,0.1,2.6,0.1c4,0,7-1,9-2.9c2-1.9,3.1-5.7,3.1-11.3V285.3h40.5v170.9
			c0,15.6-3.1,27.2-9.2,34.7c-6.2,7.5-18.3,11.2-36.3,11.2c-1.2,0-3.1,0-5.5-0.1c-2.4-0.1-5.4-0.2-9-0.3V469.3z M218.9,266.1h-40.5
			v-37.4h40.5V266.1z"/>
		<path d="M369.2,420.6c-13.1,16.1-32.9,24.2-59.6,24.2c-26.6,0-46.5-8.1-59.6-24.2c-13.1-16.1-19.6-35.6-19.6-58.3
			c0-22.4,6.5-41.7,19.6-58.1c13.1-16.4,32.9-24.6,59.6-24.6c26.6,0,46.5,8.2,59.6,24.6c13.1,16.4,19.6,35.8,19.6,58.1
			C388.8,385,382.3,404.5,369.2,420.6z M336.8,398.2c6.3-8.4,9.5-20.4,9.5-35.9c0-15.5-3.2-27.5-9.5-35.9
			c-6.4-8.4-15.5-12.6-27.3-12.6c-11.9,0-21,4.2-27.4,12.6c-6.4,8.4-9.6,20.3-9.6,35.9c0,15.5,3.2,27.5,9.6,35.9
			c6.4,8.4,15.5,12.6,27.4,12.6C321.3,410.9,330.4,406.6,336.8,398.2z"/>
		<path d="M431.8,390.1c0.9,7.2,2.7,12.3,5.6,15.4c5,5.4,14.4,8.1,28,8.1c8,0,14.4-1.2,19.1-3.6c4.7-2.4,7.1-5.9,7.1-10.7
			c0-4.6-1.9-8-5.7-10.4c-3.8-2.4-17.9-6.4-42.4-12.2c-17.6-4.4-30-9.8-37.2-16.4c-7.2-6.4-10.8-15.7-10.8-27.9
			c0-14.3,5.6-26.6,16.9-36.9c11.3-10.3,27.1-15.4,47.5-15.4c19.4,0,35.2,3.9,47.4,11.6c12.2,7.7,19.2,21.1,21,40h-40.5
			c-0.6-5.2-2-9.3-4.4-12.4c-4.5-5.5-12.1-8.2-22.8-8.2c-8.8,0-15.1,1.4-18.9,4.1c-3.8,2.8-5.6,6-5.6,9.7c0,4.6,2,8,6,10.1
			c4,2.2,18.1,5.9,42.3,11.2c16.1,3.8,28.2,9.5,36.3,17.2c8,7.8,11.9,17.5,11.9,29.2c0,15.4-5.7,27.9-17.2,37.6
			c-11.4,9.7-29.1,14.6-53.1,14.6c-24.4,0-42.4-5.1-54.1-15.4c-11.6-10.3-17.5-23.4-17.5-39.3H431.8z"/>
		<path d="M656.3,285.4c7.8,3.3,14.2,8.4,19.2,15.2c4.2,5.8,6.8,11.7,7.8,17.9c0.9,6.1,1.4,16.1,1.4,30v91.1h-41.4v-94.4
			c0-8.4-1.4-15.1-4.2-20.2c-3.7-7.2-10.6-10.8-20.9-10.8c-10.6,0-18.7,3.6-24.2,10.7c-5.5,7.2-8.3,17.4-8.3,30.7v84h-40.5V230.7
			h40.5v73.9c5.9-9,12.6-15.3,20.3-18.8c7.7-3.6,15.8-5.3,24.3-5.3C639.8,280.5,648.5,282.1,656.3,285.4z"/>
	</g>
	<path d="M431.8,616.6c0.9,7.2,2.7,12.3,5.6,15.4c5,5.4,14.4,8.1,28,8.1c8,0,14.4-1.2,19.1-3.6c4.7-2.4,7.1-5.9,7.1-10.7
		c0-4.6-1.9-8-5.7-10.4c-3.8-2.4-17.9-6.4-42.4-12.2c-17.6-4.4-30-9.8-37.2-16.4c-7.2-6.4-10.8-15.7-10.8-27.9
		c0-14.3,5.6-26.6,16.9-36.9c11.3-10.3,27.1-15.4,47.5-15.4c19.4,0,35.2,3.9,47.4,11.6c12.2,7.7,19.2,21.1,21,40h-40.5
		c-0.6-5.2-2-9.3-4.4-12.4c-4.5-5.5-12.1-8.2-22.8-8.2c-8.8,0-15.1,1.4-18.9,4.1c-3.8,2.8-5.6,6-5.6,9.7c0,4.6,2,8,6,10.1
		c4,2.2,18.1,5.9,42.3,11.2c16.1,3.8,28.2,9.5,36.3,17.2c8,7.8,11.9,17.5,11.9,29.2c0,15.4-5.7,27.9-17.2,37.6
		c-11.4,9.7-29.1,14.6-53.1,14.6c-24.4,0-42.4-5.1-54.1-15.4c-11.6-10.3-17.5-23.4-17.5-39.3H431.8z"/>
	<path d="M656.3,511.9c7.8,3.3,14.2,8.4,19.2,15.2c4.2,5.8,6.8,11.7,7.8,17.9c0.9,6.1,1.4,16.1,1.4,30V666h-41.4v-94.4
		c0-8.4-1.4-15.1-4.2-20.2c-3.7-7.2-10.6-10.8-20.9-10.8c-10.6,0-18.7,3.6-24.2,10.7c-5.5,7.2-8.3,17.4-8.3,30.7v84h-40.5V457.1
		h40.5v73.9c5.9-9,12.6-15.3,20.3-18.8c7.7-3.6,15.8-5.3,24.3-5.3C639.8,506.9,648.5,508.6,656.3,511.9z"/>
	<path d="M741.1,492.6H700v-37.4h41.1V492.6z M700,511h41.1v155H700V511z"/>
</g>
</svg>
